<svg xmlns="http://www.w3.org/2000/svg" version="1.0" width="500.000000pt" height="500.000000pt" viewBox="0 0 500.000000 500.000000" preserveAspectRatio="xMidYMid meet">

<g transform="translate(0.000000,500.000000) scale(0.100000,-0.100000)" fill="#ffffff" stroke="none">
<path d="M1755 4060 c-143 -16 -254 -81 -330 -195 -51 -76 -75 -149 -82 -250 -10 -147 36 -237 151 -295 l69 -35 313 -3 c173 -2 314 -6 314 -10 0 -4 -83 -479 -185 -1057 -137 -772 -184 -1061 -179 -1090 22 -142 136 -248 302 -284 83 -17 219 -14 306 9 163 41 317 154 376 274 27 55 70 241 70 300 0 15 -19 32 -64 58 -130 76 -281 245 -342 384 -59 133 -77 219 -77 369 -1 156 11 225 64 351 111 266 348 465 629 529 41 9 80 18 86 20 6 2 15 25 18 52 4 26 10 58 13 71 l5 22 282 0 c305 0 348 5 447 56 29 14 74 47 102 72 226 210 202 532 -49 633 l-59 24 -1055 1 c-580 1 -1086 -2 -1125 -6z"/>
</g>
</svg>